<svg xmlns="http://www.w3.org/2000/svg" xmlns:xlink="http://www.w3.org/1999/xlink" width="500" zoomAndPan="magnify" viewBox="0 0 375 187.499995" height="250" preserveAspectRatio="xMidYMid meet" version="1.0"><defs><g/></defs><g fill="#ff00ff" fill-opacity="1"><g transform="translate(8.383285, 135.069155)"><g><path d="M 26.234375 -49.40625 L 77.703125 -81.203125 L 77.703125 -59.78125 L 44.140625 -40.875 L 77.703125 -20.203125 L 77.703125 1.140625 L 26.234375 -33.09375 Z M 26.234375 -49.40625 "/></g></g></g><g fill="#ff00ff" fill-opacity="1"><g transform="translate(112.378768, 135.069155)"><g><path d="M 20.515625 0.609375 C 16.140625 0.203125 11.03125 0 5.1875 0 L -0.84375 0 L 32.328125 -92.953125 C 33.804688 -97.117188 34.546875 -99.539062 34.546875 -100.21875 C 34.546875 -100.90625 34.519531 -101.328125 34.46875 -101.484375 L 34.546875 -101.640625 C 37.847656 -101.484375 41.351562 -101.40625 45.0625 -101.40625 C 48.113281 -101.40625 51.773438 -101.457031 56.046875 -101.5625 L 56.125 -101.40625 C 56.019531 -101.207031 55.96875 -100.929688 55.96875 -100.578125 C 55.96875 -99.609375 56.726562 -97.039062 58.25 -92.875 L 92.109375 0.234375 C 91.085938 0.179688 89.894531 0.15625 88.53125 0.15625 C 88.53125 0.15625 87.207031 0.101562 84.5625 0 C 83.289062 0 82.144531 0 81.125 0 L 69.3125 0 L 62.140625 -21.953125 L 27.671875 -21.953125 Z M 56.1875 -40.265625 L 44.6875 -75.71875 L 33.46875 -40.265625 Z M 56.1875 -40.265625 "/></g></g></g><g fill="#ff00ff" fill-opacity="1"><g transform="translate(203.641676, 135.069155)"><g><path d="M 45.671875 -116.65625 L 65.1875 -116.65625 L 19.515625 12.96875 L 0 12.96875 Z M 45.671875 -116.65625 "/></g></g></g><g fill="#ff00ff" fill-opacity="1"><g transform="translate(268.829472, 135.069155)"><g><path d="M 26.078125 -20.203125 L 59.546875 -40.875 L 26.078125 -59.78125 L 26.078125 -81.203125 L 77.546875 -49.40625 L 77.546875 -33.09375 L 26.078125 1.140625 Z M 26.078125 -20.203125 "/></g></g></g><g fill="#00ffff" fill-opacity="1"><g transform="translate(2.527047, 135.069155)"><g><path d="M 26.234375 -49.40625 L 77.703125 -81.203125 L 77.703125 -59.78125 L 44.140625 -40.875 L 77.703125 -20.203125 L 77.703125 1.140625 L 26.234375 -33.09375 Z M 26.234375 -49.40625 "/></g></g></g><g fill="#00ffff" fill-opacity="1"><g transform="translate(106.522531, 135.069155)"><g><path d="M 20.515625 0.609375 C 16.140625 0.203125 11.03125 0 5.1875 0 L -0.84375 0 L 32.328125 -92.953125 C 33.804688 -97.117188 34.546875 -99.539062 34.546875 -100.21875 C 34.546875 -100.90625 34.519531 -101.328125 34.46875 -101.484375 L 34.546875 -101.640625 C 37.847656 -101.484375 41.351562 -101.40625 45.0625 -101.40625 C 48.113281 -101.40625 51.773438 -101.457031 56.046875 -101.5625 L 56.125 -101.40625 C 56.019531 -101.207031 55.96875 -100.929688 55.96875 -100.578125 C 55.96875 -99.609375 56.726562 -97.039062 58.25 -92.875 L 92.109375 0.234375 C 91.085938 0.179688 89.894531 0.15625 88.53125 0.15625 C 88.53125 0.15625 87.207031 0.101562 84.5625 0 C 83.289062 0 82.144531 0 81.125 0 L 69.3125 0 L 62.140625 -21.953125 L 27.671875 -21.953125 Z M 56.1875 -40.265625 L 44.6875 -75.71875 L 33.46875 -40.265625 Z M 56.1875 -40.265625 "/></g></g></g><g fill="#00ffff" fill-opacity="1"><g transform="translate(197.785439, 135.069155)"><g><path d="M 45.671875 -116.65625 L 65.1875 -116.65625 L 19.515625 12.96875 L 0 12.96875 Z M 45.671875 -116.65625 "/></g></g></g><g fill="#00ffff" fill-opacity="1"><g transform="translate(262.973234, 135.069155)"><g><path d="M 26.078125 -20.203125 L 59.546875 -40.875 L 26.078125 -59.78125 L 26.078125 -81.203125 L 77.546875 -49.40625 L 77.546875 -33.09375 L 26.078125 1.140625 Z M 26.078125 -20.203125 "/></g></g></g><g fill="#000000" fill-opacity="1"><g transform="translate(5.455166, 135.069155)"><g><path d="M 26.234375 -49.40625 L 77.703125 -81.203125 L 77.703125 -59.78125 L 44.140625 -40.875 L 77.703125 -20.203125 L 77.703125 1.140625 L 26.234375 -33.09375 Z M 26.234375 -49.40625 "/></g></g></g><g fill="#000000" fill-opacity="1"><g transform="translate(109.450649, 135.069155)"><g><path d="M 20.515625 0.609375 C 16.140625 0.203125 11.03125 0 5.1875 0 L -0.84375 0 L 32.328125 -92.953125 C 33.804688 -97.117188 34.546875 -99.539062 34.546875 -100.21875 C 34.546875 -100.90625 34.519531 -101.328125 34.46875 -101.484375 L 34.546875 -101.640625 C 37.847656 -101.484375 41.351562 -101.40625 45.0625 -101.40625 C 48.113281 -101.40625 51.773438 -101.457031 56.046875 -101.5625 L 56.125 -101.40625 C 56.019531 -101.207031 55.96875 -100.929688 55.96875 -100.578125 C 55.96875 -99.609375 56.726562 -97.039062 58.25 -92.875 L 92.109375 0.234375 C 91.085938 0.179688 89.894531 0.15625 88.53125 0.15625 C 88.53125 0.15625 87.207031 0.101562 84.5625 0 C 83.289062 0 82.144531 0 81.125 0 L 69.3125 0 L 62.140625 -21.953125 L 27.671875 -21.953125 Z M 56.1875 -40.265625 L 44.6875 -75.71875 L 33.46875 -40.265625 Z M 56.1875 -40.265625 "/></g></g></g><g fill="#000000" fill-opacity="1"><g transform="translate(200.713558, 135.069155)"><g><path d="M 45.671875 -116.65625 L 65.1875 -116.65625 L 19.515625 12.96875 L 0 12.96875 Z M 45.671875 -116.65625 "/></g></g></g><g fill="#000000" fill-opacity="1"><g transform="translate(265.901353, 135.069155)"><g><path d="M 26.078125 -20.203125 L 59.546875 -40.875 L 26.078125 -59.78125 L 26.078125 -81.203125 L 77.546875 -49.40625 L 77.546875 -33.09375 L 26.078125 1.140625 Z M 26.078125 -20.203125 "/></g></g></g></svg>